<svg width="400" height="224" xmlns="http://www.w3.org/2000/svg">

 <g>
  <title>background</title>
  <rect fill="none" id="canvas_background" height="226" width="402" y="-1" x="-1"/>
 </g>
 <g>
  <title>Layer 1</title>
  <ellipse stroke="null" ry="97.5" rx="100.5" id="svg_4" cy="114.55" cx="201" stroke-opacity="null" stroke-width="null" fill="#ffffff"/>
  <path stroke="null" id="svg_1" d="m201.99062,6.79773c14.81225,-0.37499 28.96826,2.34371 42.56178,8.24986c10.96856,4.78117 20.7184,11.43731 29.34325,19.68717c9.56234,9.0936 17.53095,19.21842 23.15586,31.12447c6.46864,13.49977 9.65609,27.74953 9.74984,42.74928c0.09375,7.87487 -0.09375,15.65599 -1.49997,23.4371c-3.65619,19.96841 -12.56229,37.31187 -26.62455,51.93662c-8.99985,9.37484 -19.12468,17.34346 -30.84323,22.96836c-13.49977,6.46864 -27.74953,9.65609 -42.74928,9.74984c-7.87487,0.09375 -15.65599,-0.09375 -23.4371,-1.49997c-19.96841,-3.65619 -37.21812,-12.46854 -51.84287,-26.5308c-9.46859,-8.99985 -17.43721,-19.12468 -23.06211,-30.93698c-6.46864,-13.49977 -9.74984,-27.74953 -9.84358,-42.74928c-0.09375,-7.87487 0.09375,-15.65599 1.49997,-23.4371c3.74994,-20.06216 12.65604,-37.31187 26.7183,-52.03037c8.9061,-9.28109 18.93718,-17.15596 30.56198,-22.78086c14.43726,-6.93738 29.71825,-10.21858 45.74923,-9.93733l0.56249,0zm-0.09375,198.65289c14.15601,-0.46874 27.56203,-3.65619 40.31182,-9.74984c9.84358,-4.78117 18.93718,-10.78107 26.5308,-18.74968c11.6248,-12.18729 19.40592,-26.5308 23.71835,-42.84303c2.06247,-7.68737 3.37494,-15.46849 3.0937,-23.4371c-0.37499,-13.59352 -3.65619,-26.43705 -9.46859,-38.7181c-4.78117,-10.12483 -10.87482,-19.31217 -18.93718,-26.99954c-11.90605,-11.43731 -26.06206,-19.12468 -41.99929,-23.4371c-7.96862,-2.15621 -16.03098,-3.56244 -24.28084,-3.37494c-13.49977,0.37499 -26.43705,3.65619 -38.62435,9.37484c-10.12483,4.78117 -19.31217,10.87482 -26.99954,18.93718c-12.18729,12.74978 -20.15591,27.74953 -24.28084,44.71799c-1.59372,6.46864 -2.53121,12.93728 -2.7187,19.59342c-0.09375,6.1874 0.65624,12.28104 1.96872,18.28094c6.37489,28.59327 21.56214,50.90539 47.81169,64.8739c13.78102,7.31238 28.40577,11.06231 43.87426,11.53105z" fill="#07539A"/>
  <path stroke="null" id="svg_2" d="m184.25848,73.26265c-1.65322,37.01367 -3.30643,73.65995 -5.05149,110.67362c10.10299,-9.18453 19.93044,-18.18537 29.84973,-27.18622c1.10214,1.92875 1.92875,4.04119 2.84721,6.15364c4.04119,9.64376 7.99054,19.37936 12.03174,29.02312c0.36738,0.82661 0.27554,1.10214 -0.64292,1.28583c-47.2085,12.12358 -95.51914,-17.54246 -104.51998,-65.8531c-6.98024,-37.01367 12.03174,-73.7518 46.29005,-90.10027c40.68748,-19.47121 89.64104,-3.76566 111.13285,35.72783c21.49181,39.58534 7.53132,88.35521 -31.31926,111.22469c-0.73476,0.45923 -0.91845,0.18369 -1.19399,-0.45923c-4.77596,-10.83775 -9.46007,-21.6755 -14.23603,-32.60509c-0.45923,-1.10214 -0.91845,-2.29613 -1.46953,-3.58197c14.32787,-1.28583 28.5639,-2.57167 43.1673,-3.94935c-29.02312,-23.5124 -57.86256,-46.84112 -86.88568,-70.35352zm-3.30643,4.31673l-0.09185,0c0.09185,-0.73476 0.09185,-1.37768 0.18369,-2.11244c0,-0.73476 0,-1.37768 0.09185,-2.11244c0,-0.45923 0.09185,-0.91845 0.27554,-1.37768c0.55107,-1.65322 2.0206,-2.29613 3.58197,-1.37768c0.45923,0.18369 0.82661,0.55107 1.19399,0.82661c8.17423,6.52102 16.34847,13.04204 24.61455,19.47121c1.65322,1.28583 3.21459,2.84721 5.14334,3.76566c5.41887,2.47982 10.7459,4.95965 16.16478,7.43947c6.24548,2.84721 12.58281,5.69441 18.73645,8.63346c0.64292,0.27554 1.74506,0.36738 1.65322,1.65322c-0.09185,2.57167 0.64292,4.8678 1.92875,6.98024c3.49012,6.06179 10.56221,8.81715 17.26692,6.61286c6.52102,-2.11244 10.7459,-8.72531 9.82745,-15.61371c-0.82661,-5.78626 -3.94935,-9.9193 -9.46007,-11.93989c-5.51072,-2.0206 -10.65406,-0.91845 -14.97079,3.12274c-1.19399,1.10214 -1.92875,1.46953 -3.58197,0.73476l-11.29698,-5.23518c-3.76566,-1.65322 -7.53132,-3.49012 -11.29698,-5.23518c-3.58197,-1.65322 -7.25578,-3.30643 -10.83775,-5.05149c-3.58197,-1.65322 -7.25578,-3.39828 -10.83775,-5.05149c-3.21459,-1.46953 -6.42917,-3.0309 -9.64376,-4.50042c-0.45923,-0.18369 -0.64292,-0.36738 -0.55107,-0.91845c0.36738,-2.38798 0.09185,-4.77596 -0.73476,-7.07209c-0.27554,-0.73476 -0.09185,-1.0103 0.45923,-1.37768c4.04119,-2.66351 8.08239,-5.32703 12.03174,-8.08239c0.73476,-0.45923 1.19399,-0.55107 1.92875,0c3.0309,2.29613 6.61286,3.12274 10.28668,2.57167c8.54162,-1.19399 14.05234,-8.909 12.39912,-17.35877c-1.37768,-7.25578 -8.08239,-12.58281 -16.16478,-11.48067c-8.63346,1.19399 -13.96049,8.909 -12.30727,17.54246c0.09185,0.64292 0,0.91845 -0.45923,1.28583c-1.10214,0.73476 -2.20429,1.46953 -3.21459,2.20429c-3.21459,2.20429 -6.42917,4.31673 -9.64376,6.52102c-0.73476,0.55107 -1.37768,0.64292 -2.29613,0.18369c-5.69441,-2.93905 -12.39912,-1.83691 -16.89954,2.66351c-2.29613,2.38798 -3.67381,5.14334 -4.13304,8.44977c-0.09185,0.45923 0.09185,1.0103 -0.64292,1.10214c-1.46953,0.36738 -2.84721,0.73476 -4.22489,1.10214c-4.59227,1.19399 -9.18453,2.38798 -13.7768,3.67381c-0.82661,0.27554 -1.28583,0.09185 -1.83691,-0.55107c-3.39828,-3.76566 -7.62316,-5.41887 -12.58281,-4.8678c-6.15364,0.64292 -11.20513,5.32703 -12.58281,11.38882c-1.28583,6.06179 1.28583,12.12358 6.52102,15.43002c8.81715,5.51072 20.48151,0.27554 22.13472,-9.9193c0.18369,-1.0103 -0.27554,-2.20429 0.45923,-2.84721c0.64292,-0.55107 1.83691,-0.64292 2.75536,-0.82661c5.05149,-1.37768 10.10299,-2.75536 15.15448,-4.22489c0.55107,-0.18369 0.82661,0 1.10214,0.36738c0.64292,1.0103 1.46953,1.92875 2.38798,2.75536c0.36738,0.36738 0.45923,0.73476 0.27554,1.19399c-0.55107,1.65322 -1.0103,3.30643 -1.56137,4.95965c-1.0103,3.21459 -2.0206,6.42917 -2.93905,9.64376c-1.19399,3.76566 -2.29613,7.53132 -3.49012,11.38882c-1.0103,3.21459 -2.0206,6.42917 -2.93905,9.64376c-1.0103,3.21459 -1.92875,6.42917 -2.93905,9.64376c-0.73476,2.38798 -1.46953,4.8678 -2.20429,7.25578c-0.73476,2.38798 -1.37768,4.68411 -2.11244,7.07209c-0.18369,0.55107 -0.36738,0.91845 -1.0103,1.10214c-6.70471,1.92875 -10.7459,7.34763 -10.7459,14.23603c0,9.18453 9.00084,16.16478 17.90984,13.96049c5.96995,-1.46953 10.37852,-6.33733 11.11328,-12.30727c0.73476,-6.33733 -2.20429,-11.93989 -8.08239,-14.97079c-0.45923,-0.18369 -0.64292,-0.45923 -0.45923,-0.91845c0.27554,-0.82661 0.55107,-1.74506 0.82661,-2.66351c1.28583,-4.40858 2.57167,-8.81715 4.04119,-13.13388c1.37768,-4.13304 2.57167,-8.26608 3.8575,-12.39912l3.58197,-11.57251c0.55107,-1.92875 1.37768,-3.76566 1.56137,-5.78626c0.18369,-7.62316 0.64292,-15.70555 1.10214,-23.69609z" fill="#07539A"/>
 </g>
</svg>